<?xml version="1.0" encoding="utf-8"?>
<!-- Generator: Adobe Illustrator 16.0.3, SVG Export Plug-In . SVG Version: 6.00 Build 0)  -->
<!DOCTYPE svg PUBLIC "-//W3C//DTD SVG 1.1//EN" "http://www.w3.org/Graphics/SVG/1.1/DTD/svg11.dtd">
<svg version="1.1" id="Capa_1" xmlns="http://www.w3.org/2000/svg" xmlns:xlink="http://www.w3.org/1999/xlink" x="0px" y="0px"
	 width="1200px" height="1000px" viewBox="0 0 1200 1000" enable-background="new 0 0 1200 1000" xml:space="preserve">
<path fill="#D3D3D3" d="M600,687.5c-32.285,0-64.57-10.59-92.109-32.051L100,338.281V781.25c0,51.758,41.973,93.75,93.75,93.75
	h812.5c51.777,0,93.75-41.973,93.75-93.75V338.281L692.188,655.664C664.648,676.953,632.227,687.5,600,687.5z M131.816,283.789
	L546.27,606.25c31.621,24.609,75.918,24.609,107.539,0l414.453-322.461c18.262-15.625,31.738-39.648,31.738-65.039
	c0-51.777-41.992-93.75-93.75-93.75h-812.5c-51.777,0-93.75,41.973-93.75,93.75C100,244.141,111.738,268.164,131.816,283.789z"/>
</svg>
